<?xml version="1.0" standalone="no"?>
<!DOCTYPE svg PUBLIC "-//W3C//DTD SVG 20010904//EN"
 "http://www.w3.org/TR/2001/REC-SVG-20010904/DTD/svg10.dtd">
<svg version="1.0" xmlns="http://www.w3.org/2000/svg"
 width="657.000000pt" height="607.000000pt" viewBox="0 0 657.000000 607.000000"
 preserveAspectRatio="xMidYMid meet">

<g transform="translate(0.000000,607.000000) scale(0.100000,-0.100000)"
fill="#000000" stroke="none">
<path d="M2950 6035 l0 -35 83 0 c45 0 99 3 120 6 33 6 37 10 37 35 l0 29
-120 0 -120 0 0 -35z"/>
<path d="M3250 6046 c0 -14 4 -27 9 -30 5 -3 59 -3 120 1 108 6 111 7 111 30
0 23 -1 23 -120 23 l-120 0 0 -24z"/>
<path d="M3550 6056 c0 -25 16 -27 130 -20 83 5 110 10 110 20 0 11 -26 14
-120 14 -98 0 -120 -3 -120 -14z"/>
<path d="M3857 6059 c9 -9 42 -9 125 -2 l113 10 -124 1 c-94 2 -122 -1 -114
-9z"/>
<path d="M4248 6058 c12 -6 22 -17 22 -23 0 -7 14 -18 30 -25 17 -7 30 -16 30
-20 0 -3 11 -13 25 -20 33 -17 30 -52 -4 -60 -13 -3 -33 -17 -44 -32 -27 -35
-13 -82 26 -86 35 -4 34 -17 -3 -34 -34 -15 -44 -33 -30 -56 9 -16 9 -16 10 1
0 20 15 23 27 5 4 -7 19 -13 33 -13 27 0 26 6 17 -110 -2 -27 0 -61 6 -75 9
-24 10 -24 17 -5 6 15 9 8 9 -27 1 -42 -1 -46 -21 -40 -19 4 -20 2 -14 -19 13
-41 19 -186 8 -193 -12 -7 -4 -96 11 -114 10 -13 29 -406 20 -429 -6 -16 -30
-17 -35 -1 -2 6 -12 9 -21 5 -11 -4 -14 -12 -10 -24 4 -10 8 -12 11 -5 9 27
20 9 25 -40 4 -29 11 -54 17 -56 15 -5 12 -48 -5 -62 -20 -17 -19 -34 1 -26
19 7 47 -12 38 -26 -3 -5 0 -15 6 -23 8 -10 10 -30 5 -57 -3 -24 -8 -70 -9
-103 -2 -33 -6 -79 -11 -102 -6 -35 -5 -43 8 -43 12 0 16 -21 21 -117 4 -65
12 -161 18 -214 8 -71 8 -116 -1 -173 -15 -104 -14 -162 3 -179 14 -13 25
-101 15 -111 -2 -2 -16 -7 -31 -11 -24 -6 -26 -4 -33 36 -6 33 -9 39 -17 26
-5 -9 -15 -17 -23 -17 -11 0 -12 -6 -3 -32 9 -24 8 -33 0 -36 -8 -2 -12 -35
-12 -95 -1 -58 -6 -101 -14 -116 -24 -43 -11 -51 74 -51 42 0 99 3 125 7 l47
6 -7 51 c-3 28 -10 55 -15 61 -14 17 -23 104 -25 240 -2 72 -7 164 -13 205 -6
41 -11 82 -12 90 0 13 -1 13 -10 0 -8 -13 -10 -12 -11 5 -3 34 2 69 12 81 13
16 14 774 1 894 -6 52 -16 221 -21 375 -6 154 -16 379 -22 501 -6 121 -12 288
-13 370 l-2 149 -124 2 c-97 2 -120 0 -102 -9z"/>
<path d="M3080 5919 c-14 -6 -50 -15 -80 -21 -30 -5 -66 -16 -80 -23 -14 -7
-54 -18 -87 -25 -108 -19 -172 -47 -247 -107 -39 -31 -77 -66 -85 -78 -8 -11
-36 -41 -62 -66 -55 -53 -105 -149 -114 -218 -4 -25 -13 -63 -21 -84 -17 -45
-18 -136 -3 -171 10 -22 8 -31 -15 -67 -17 -25 -25 -47 -21 -57 6 -15 13 -76
31 -304 7 -78 7 -78 -17 -78 -35 0 -69 -27 -69 -55 0 -14 -5 -55 -12 -92 -18
-107 9 -258 62 -351 22 -38 40 -76 40 -84 0 -19 20 -38 41 -38 13 0 19 -12 24
-52 4 -29 13 -80 21 -113 7 -33 14 -87 14 -120 0 -53 -4 -65 -29 -92 -27 -30
-43 -58 -122 -213 -59 -116 -76 -154 -89 -192 -14 -44 -92 -117 -159 -149 -25
-11 -74 -46 -110 -76 l-65 -56 83 5 c48 3 96 0 115 -6 50 -18 96 -49 97 -66 0
-8 4 -39 8 -68 4 -29 4 -146 0 -260 -8 -209 -6 -252 14 -252 13 0 118 62 232
135 44 28 86 55 93 59 8 5 17 -5 28 -31 8 -21 19 -47 24 -58 5 -11 21 -51 36
-90 15 -38 40 -88 55 -110 45 -62 65 -113 150 -370 78 -236 124 -361 141 -380
5 -5 1 13 -7 40 -25 77 -86 311 -104 398 -10 43 -21 74 -25 70 -5 -4 -6 4 -2
19 6 28 -24 164 -51 228 -21 51 -93 188 -135 258 -21 34 -18 53 4 35 7 -6 28
-14 46 -18 55 -12 123 -75 185 -172 31 -50 67 -115 78 -145 12 -29 25 -64 30
-77 6 -13 12 -22 14 -19 10 9 -59 219 -95 290 -41 82 -34 107 12 46 29 -38 78
-132 78 -149 0 -28 33 -78 51 -76 24 2 24 4 -1 45 -25 40 -25 59 -2 65 13 4
11 5 -5 6 -24 1 -31 15 -13 26 16 10 65 -21 94 -60 25 -32 26 -38 13 -53 -20
-23 -26 -56 -15 -76 11 -20 57 -21 85 -1 42 29 38 141 -7 172 -11 8 -20 23
-20 34 0 11 -14 38 -32 60 -25 31 -32 51 -36 97 -2 31 -8 62 -13 68 -5 6 -7
18 -4 26 7 17 -36 56 -54 50 -9 -3 -11 0 -7 7 17 27 -43 65 -138 87 l-61 14
60 -5 c125 -12 198 -74 251 -216 19 -52 51 -125 71 -163 39 -76 80 -209 89
-283 3 -26 12 -75 20 -108 30 -118 33 -131 38 -180 3 -27 31 -142 62 -255 83
-301 104 -395 104 -463 0 -34 8 -107 19 -162 10 -55 22 -131 25 -170 4 -38 20
-151 36 -250 16 -99 36 -241 45 -315 9 -74 19 -143 21 -152 5 -16 21 -18 154
-18 l149 0 -20 68 c-11 37 -37 140 -59 228 -21 89 -43 171 -49 183 -7 11 -22
63 -35 114 -13 50 -40 153 -60 227 -37 144 -61 272 -71 385 -25 291 -50 431
-101 555 -22 54 -26 86 -35 239 -12 223 2 544 25 590 15 28 15 31 -6 45 -12 9
-17 16 -9 16 8 0 6 9 -8 26 -12 15 -21 34 -21 44 0 17 118 102 161 115 21 7
79 -11 91 -29 8 -12 38 11 38 29 0 6 -11 32 -24 56 -14 24 -34 62 -46 84 -12
22 -30 49 -40 60 -10 11 -25 40 -34 65 -28 81 -41 114 -63 155 -11 22 -24 55
-28 72 -3 18 -11 35 -16 39 -5 3 -17 23 -25 45 -9 21 -20 37 -24 34 -4 -3 -11
-33 -15 -67 -15 -142 -61 -290 -164 -533 -28 -66 -58 -140 -65 -166 -19 -64
-57 -149 -66 -149 -5 0 -16 21 -27 47 -59 151 -94 188 -183 189 -54 1 -60 3
-91 38 -36 41 -33 60 11 83 20 10 30 8 66 -13 l42 -25 28 26 c26 24 27 28 12
39 -14 10 -9 16 38 40 57 30 62 52 10 43 -29 -5 -29 -4 9 13 33 16 41 25 46
55 5 32 4 35 -15 29 -19 -6 -20 -5 -6 12 18 22 67 70 95 93 37 30 121 135 158
197 20 33 50 76 67 95 16 19 44 54 62 79 l32 44 -36 -27 c-43 -33 -59 -21 -29
22 23 32 27 51 11 51 -5 0 -10 -4 -10 -8 0 -4 -16 -24 -35 -44 -30 -31 -34
-40 -24 -55 9 -15 7 -26 -12 -58 -12 -22 -27 -49 -33 -60 -16 -29 -53 -72
-121 -141 -48 -48 -71 -63 -109 -73 -35 -8 -51 -9 -56 -1 -8 12 -65 30 -99 30
-13 0 -33 8 -43 17 -10 9 -31 18 -46 20 -15 1 -33 3 -40 4 -6 1 -26 30 -43 63
-25 51 -27 62 -14 64 9 2 31 -6 50 -17 31 -18 46 -20 137 -15 169 9 238 44
238 119 0 18 6 38 14 44 8 7 12 21 8 33 -3 14 -1 19 6 14 8 -5 12 0 12 12 0
23 60 79 93 87 12 2 31 4 41 2 13 -1 22 6 27 23 l7 25 1 -27 c2 -61 54 -35 71
36 6 23 15 49 21 59 11 20 -8 87 -24 87 -5 0 -36 25 -68 55 -87 80 -146 118
-153 100 -3 -8 -1 -15 4 -15 5 0 12 -11 16 -25 4 -16 13 -25 25 -25 23 0 52
-42 43 -63 -3 -9 4 -47 16 -84 21 -64 21 -68 4 -80 -10 -7 -24 -13 -31 -13 -7
0 -22 -5 -32 -12 -15 -9 -37 -9 -99 1 -44 7 -94 10 -111 6 -53 -11 -35 10 64
77 52 34 97 69 100 77 8 19 -15 43 -34 36 -34 -14 -54 -14 -82 1 -22 11 -29
22 -30 47 -2 46 -5 79 -18 201 -10 95 -9 118 5 180 9 39 24 79 32 89 23 27 41
85 33 110 -3 12 -15 24 -26 25 -11 2 -29 14 -40 26 -31 35 -96 69 -108 57 -19
-19 -27 -12 -27 19 0 17 -6 43 -13 58 -21 41 -7 73 42 99 50 26 71 29 71 9 0
-20 42 -27 117 -20 52 6 67 11 70 26 3 10 10 18 16 18 6 0 8 3 5 6 -4 3 -15 1
-25 -4 -10 -5 -41 -12 -69 -15 -47 -5 -55 -3 -85 24 -33 29 -33 31 -15 45 11
8 23 14 28 14 4 0 8 6 8 14 0 8 9 18 20 21 13 4 20 15 20 31 0 13 5 24 10 24
6 0 10 -4 10 -10 0 -5 27 5 60 23 33 17 60 38 60 45 0 18 -36 6 -61 -19 -13
-13 -27 -17 -43 -13 -29 7 -66 -11 -66 -32 0 -8 -4 -13 -9 -10 -22 14 4 58 55
92 54 36 92 43 60 12 -20 -20 -20 -28 -2 -28 7 0 20 10 28 22 14 21 15 22 51
4 38 -17 46 -31 25 -39 -7 -2 -10 -7 -6 -11 3 -4 15 -2 26 5 16 10 24 9 43 -4
13 -10 33 -17 44 -17 12 0 26 -5 33 -12 9 -9 17 -9 36 2 21 10 28 11 41 0 8
-7 24 -10 35 -7 24 6 37 -16 65 -107 17 -52 20 -57 28 -38 10 23 27 30 27 11
0 -13 25 -39 39 -39 20 0 33 -78 22 -133 -14 -70 -31 -292 -30 -386 1 -64 3
-69 8 -34 4 23 12 47 18 55 6 7 25 57 43 110 33 100 95 212 111 202 5 -3 10
-53 10 -112 1 -59 4 -136 8 -172 l6 -65 85 3 c47 2 131 7 187 12 57 5 110 7
118 4 9 -4 25 -24 36 -46 16 -31 24 -38 39 -33 17 5 20 2 20 -21 0 -19 3 -25
10 -18 7 7 7 21 -1 42 -6 18 -8 44 -5 57 7 28 4 30 -24 13 -13 -9 -23 -9 -30
-2 -5 5 -14 109 -20 234 -5 124 -14 322 -20 440 -5 118 -13 291 -16 383 -6
151 -8 168 -23 161 -9 -4 -57 -12 -108 -17 -96 -10 -123 -4 -123 29 0 8 -11
32 -25 54 -14 22 -25 44 -25 49 0 14 -28 27 -72 34 -28 4 -38 2 -38 -8 0 -31
-18 -22 -39 20 -23 47 -37 56 -43 29 -2 -12 -18 -1 -58 38 -59 58 -98 75 -198
85 -31 3 -67 9 -80 14 -13 5 -48 9 -78 9 -30 0 -71 7 -91 15 -40 17 -174 19
-213 4z m727 -251 c-3 -8 -6 -5 -6 6 -1 11 2 17 5 13 3 -3 4 -12 1 -19z m-399
-480 c7 -7 12 -21 12 -31 0 -13 5 -17 16 -13 10 4 14 1 11 -6 -2 -7 -15 -13
-28 -14 -14 0 -30 -4 -37 -8 -8 -5 -20 -1 -31 8 -10 9 -21 16 -25 16 -14 0
-57 38 -49 43 18 10 73 -6 74 -22 0 -13 2 -13 6 -1 7 20 24 40 32 40 4 0 12
-5 19 -12z m269 -230 c-3 -8 -6 -5 -6 6 -1 11 2 17 5 13 3 -3 4 -12 1 -19z
m-769 -641 c2 -10 -7 -32 -20 -50 -21 -27 -23 -38 -16 -71 5 -21 7 -40 6 -41
-18 -11 -107 -83 -120 -97 -24 -27 -93 -15 -116 21 -9 14 -24 34 -34 44 -13
13 -18 33 -18 77 0 32 -4 61 -9 65 -15 8 -8 54 9 65 8 6 81 9 165 7 135 -2
150 -4 153 -20z m-101 -273 c-3 -3 -12 -4 -19 -1 -8 3 -5 6 6 6 11 1 17 -2 13
-5z m-188 -241 c7 -27 15 -58 18 -70 3 -13 2 -31 -2 -40 -11 -29 -36 30 -42
98 -7 72 9 78 26 12z m63 -60 c9 -26 16 -49 14 -50 -2 -2 -15 19 -29 47 -16
31 -22 50 -14 50 7 0 20 -21 29 -47z m453 -69 c7 2 19 -2 26 -10 9 -11 14 -12
20 -3 5 8 10 5 18 -9 13 -24 -5 -44 -19 -21 -6 9 -12 10 -22 2 -7 -6 -22 -13
-33 -15 -18 -4 -17 -6 8 -16 15 -6 27 -18 27 -26 0 -13 -44 -32 -63 -27 -5 1
-30 2 -55 3 -73 1 -80 5 -78 38 2 21 -3 32 -16 36 -45 14 1 60 50 50 15 -3 41
-2 57 3 18 5 38 4 48 -1 10 -5 25 -7 32 -4z m48 -89 c-7 -21 -13 -19 -13 6 0
11 4 18 10 14 5 -3 7 -12 3 -20z m-918 -685 c71 -47 129 -63 194 -50 59 11 89
-3 94 -44 3 -25 4 -23 5 12 2 30 -3 44 -13 48 -24 9 -7 24 27 24 26 0 45 -14
107 -77 66 -67 73 -78 55 -81 -12 -2 -61 -37 -110 -78 -48 -42 -115 -94 -148
-117 -34 -22 -88 -61 -121 -85 -33 -24 -77 -53 -97 -63 -37 -19 -37 -19 -48 1
-6 11 -17 71 -25 133 -8 62 -21 163 -30 226 -25 187 -14 190 40 11 25 -84 25
-85 20 -30 -4 54 -17 126 -31 184 -6 26 -5 28 17 21 13 -4 42 -20 64 -35z
m259 -412 c10 -37 7 -42 -13 -24 -11 10 -17 24 -14 32 8 21 20 17 27 -8z"/>
<path d="M3000 3620 c0 -5 9 -14 20 -20 11 -6 20 -17 20 -25 0 -8 8 -15 18
-15 13 0 14 2 3 9 -7 5 -11 15 -9 22 5 15 -19 38 -39 39 -7 0 -13 -4 -13 -10z"/>
<path d="M4301 5651 c-1 -24 2 -32 9 -25 7 7 7 19 1 35 -9 23 -10 22 -10 -10z"/>
<path d="M4345 5650 c4 -11 2 -20 -4 -20 -6 0 -11 -4 -11 -10 0 -20 25 -9 36
15 12 26 9 35 -13 35 -10 0 -12 -6 -8 -20z"/>
<path d="M6564 5495 c0 -60 1 -84 3 -52 2 32 2 81 0 110 -2 29 -3 3 -3 -58z"/>
<path d="M3087 4939 c-15 -11 -25 -25 -22 -30 6 -9 65 29 65 43 0 13 -13 9
-43 -13z"/>
<path d="M3205 4570 c6 -20 4 -22 -18 -18 l-24 5 23 -76 c13 -42 24 -86 24
-99 0 -12 8 -26 18 -29 27 -10 62 -40 55 -47 -10 -10 44 -53 84 -67 66 -21
118 -17 150 12 15 14 50 31 78 38 27 6 52 14 54 17 3 2 -1 19 -7 38 -10 27 -9
38 5 66 16 34 16 34 -12 54 -15 12 -41 33 -57 49 -19 18 -39 27 -62 27 -18 0
-57 7 -87 17 -30 9 -85 17 -124 18 -38 0 -78 5 -89 9 -16 8 -17 6 -11 -14z
m251 -307 c-10 -10 -19 5 -10 18 6 11 8 11 12 0 2 -7 1 -15 -2 -18z"/>
<path d="M4375 4420 c-3 -6 1 -13 10 -16 19 -8 30 0 20 15 -8 14 -22 14 -30 1z"/>
<path d="M3748 4313 c-22 -24 -23 -43 -3 -43 18 0 28 21 23 46 -3 14 -5 14
-20 -3z"/>
<path d="M6367 4324 c-4 -4 -7 -20 -7 -36 0 -22 5 -28 21 -28 17 0 20 5 17 32
-3 31 -17 45 -31 32z"/>
<path d="M3961 4254 c0 -11 3 -14 6 -6 3 7 2 16 -1 19 -3 4 -6 -2 -5 -13z"/>
<path d="M3682 4155 c0 -16 2 -22 5 -12 2 9 2 23 0 30 -3 6 -5 -1 -5 -18z"/>
<path d="M3740 4132 c-15 -48 -10 -97 10 -97 12 0 16 15 18 68 3 75 -11 89
-28 29z"/>
<path d="M4362 3953 c2 -9 9 -18 16 -21 18 -6 15 25 -4 32 -11 4 -14 1 -12
-11z"/>
<path d="M4381 3844 c0 -11 3 -14 6 -6 3 7 2 16 -1 19 -3 4 -6 -2 -5 -13z"/>
<path d="M3520 3831 c0 -11 4 -22 9 -25 11 -7 23 22 15 35 -9 16 -24 10 -24
-10z"/>
<path d="M3460 3679 c0 -5 5 -7 10 -4 6 3 10 8 10 11 0 2 -4 4 -10 4 -5 0 -10
-5 -10 -11z"/>
<path d="M3351 3534 c0 -11 3 -14 6 -6 3 7 2 16 -1 19 -3 4 -6 -2 -5 -13z"/>
<path d="M4453 3455 c0 -44 2 -61 4 -37 2 23 2 59 0 80 -2 20 -4 1 -4 -43z"/>
<path d="M4420 3476 c0 -8 4 -17 9 -20 5 -4 7 3 4 14 -6 23 -13 26 -13 6z"/>
<path d="M2890 3290 c0 -5 7 -10 15 -10 8 0 15 5 15 10 0 6 -7 10 -15 10 -8 0
-15 -4 -15 -10z"/>
<path d="M3599 2783 c-9 -10 -33 -33 -53 -50 -20 -18 -32 -33 -26 -33 6 0 8
-5 4 -11 -11 -19 48 -1 72 22 25 23 49 25 40 3 -3 -9 -6 -20 -6 -25 0 -5 -7
-9 -15 -9 -27 0 -17 -40 15 -58 24 -13 30 -24 30 -49 0 -18 5 -33 10 -33 6 0
10 -8 10 -19 0 -54 46 -112 65 -81 9 15 20 12 49 -15 32 -29 102 -51 119 -36
7 5 33 11 57 13 l45 3 -3 40 c-5 56 -39 105 -153 218 -72 71 -106 97 -124 97
-14 0 -25 5 -25 10 0 6 -4 10 -8 10 -5 0 -8 -21 -8 -47 1 -35 -3 -48 -14 -51
-10 -1 -16 5 -17 18 -1 11 2 20 8 20 16 0 10 36 -11 58 -25 27 -40 28 -61 5z"/>
<path d="M991 2221 c-11 -27 -21 -57 -21 -66 0 -9 -8 -30 -17 -48 -20 -38 -50
-170 -64 -282 -6 -44 -26 -134 -45 -200 -19 -66 -34 -131 -34 -145 0 -14 -7
-35 -15 -46 -13 -19 -31 -22 -192 -34 -252 -17 -322 -26 -341 -44 -12 -10 -22
-12 -32 -6 -18 11 -82 13 -169 4 l-61 -7 0 -133 c0 -121 2 -134 18 -134 81 2
215 21 232 33 17 12 27 12 50 4 26 -10 208 -2 436 20 36 3 54 1 62 -10 19 -22
27 -243 12 -319 -18 -88 -13 -253 12 -448 12 -91 22 -187 23 -215 4 -153 2
-145 34 -145 23 0 30 5 34 26 5 30 -6 115 -35 254 -13 63 -21 152 -24 265 -2
94 -9 203 -15 243 -10 68 -9 76 9 95 18 20 19 31 12 130 -4 60 -3 143 2 185 4
42 13 156 18 252 10 193 16 230 35 230 24 0 55 -65 55 -114 0 -74 95 -301 186
-443 43 -67 116 -162 126 -162 4 -1 -16 45 -43 100 -36 72 -52 120 -58 168
-10 77 -87 247 -139 306 -44 49 -42 91 3 88 17 -1 46 -10 66 -19 67 -30 75
-17 29 53 -28 44 -40 73 -40 99 0 37 -37 272 -46 285 -2 4 -6 49 -9 100 -8
144 -19 161 -54 80z m3 -158 c7 -27 24 -122 31 -178 3 -27 15 -73 26 -102 15
-38 18 -56 11 -70 -9 -15 -14 -10 -37 40 -34 73 -69 245 -61 292 7 38 22 46
30 18z"/>
<path d="M3506 2240 c-7 -38 11 -93 24 -70 10 18 1 100 -10 100 -4 0 -10 -14
-14 -30z"/>
<path d="M3170 2160 c0 -11 4 -20 9 -20 5 0 7 9 4 20 -3 11 -7 20 -9 20 -2 0
-4 -9 -4 -20z"/>
<path d="M2976 2092 c-7 -12 26 -49 52 -57 30 -9 28 10 -4 40 -28 26 -40 30
-48 17z"/>
<path d="M3150 2050 c0 -5 7 -10 15 -10 8 0 15 5 15 10 0 6 -7 10 -15 10 -8 0
-15 -4 -15 -10z"/>
<path d="M3010 2013 c0 -28 10 -53 21 -53 14 0 10 33 -6 54 -15 19 -15 19 -15
-1z"/>
<path d="M1334 1920 c3 -14 6 -28 6 -32 0 -5 5 -8 11 -8 12 0 2 39 -13 55 -7
7 -9 2 -4 -15z"/>
<path d="M1419 1933 c0 -5 0 -32 1 -61 2 -65 24 -119 79 -191 42 -56 49 -79
30 -98 -8 -8 0 -30 30 -79 23 -37 41 -77 41 -89 0 -32 30 -115 56 -155 22 -34
66 -138 98 -235 10 -27 26 -100 37 -162 11 -62 24 -123 29 -135 14 -33 33
-193 31 -263 -2 -87 -20 -187 -36 -205 -10 -12 -12 -39 -8 -118 5 -89 4 -105
-12 -122 -18 -20 -17 -20 135 -20 148 0 153 1 136 19 -9 10 -14 25 -11 34 4 8
-2 21 -13 28 -18 14 -52 73 -52 91 0 5 -13 35 -28 66 -17 33 -31 83 -35 116
-4 39 -12 62 -24 71 -16 12 -17 17 -4 47 8 18 14 49 15 68 1 34 2 35 48 38 74
5 77 17 24 126 -25 52 -46 103 -46 113 0 44 -12 63 -39 63 -20 0 -32 10 -51
42 -14 22 -34 55 -44 72 -18 28 -28 95 -27 179 0 30 -41 162 -65 209 -8 15
-14 35 -14 45 0 9 -21 58 -46 109 -44 86 -47 99 -52 191 -4 81 -7 92 -14 65
-13 -49 -31 -35 -50 39 -14 54 -17 59 -17 29 -1 -20 6 -63 15 -95 27 -99 28
-105 11 -105 -15 0 -60 108 -92 223 -9 31 -21 57 -26 57 -5 0 -9 -3 -10 -7z"/>
<path d="M3040 1889 c0 -5 5 -7 10 -4 6 3 10 8 10 11 0 2 -4 4 -10 4 -5 0 -10
-5 -10 -11z"/>
<path d="M3046 1791 c3 -30 9 -62 14 -70 16 -27 11 61 -5 94 -15 29 -15 29 -9
-24z"/>
<path d="M6528 1835 c-3 -3 -56 -5 -119 -6 -63 0 -172 -6 -244 -14 -71 -7
-179 -16 -240 -20 -328 -19 -670 -47 -680 -55 -17 -14 -7 -166 14 -210 l16
-35 80 -3 c44 -2 148 4 230 12 83 8 193 18 245 21 114 7 174 11 388 26 162 12
164 12 210 -11 25 -13 67 -25 94 -28 l48 -5 0 167 c0 154 -1 166 -18 166 -10
0 -21 -2 -24 -5z"/>
<path d="M2924 1634 c23 -61 57 -173 75 -254 32 -141 63 -233 72 -217 5 7 1
36 -7 63 -8 27 -20 72 -25 99 -25 119 -98 325 -115 325 -3 0 -3 -7 0 -16z"/>
<path d="M3190 1435 c7 -8 17 -15 22 -15 6 0 5 7 -2 15 -7 8 -17 15 -22 15 -6
0 -5 -7 2 -15z"/>
<path d="M3161 1313 c0 -4 4 -17 9 -28 8 -19 9 -19 9 2 1 12 -3 25 -9 28 -5 3
-10 3 -9 -2z"/>
<path d="M4798 1275 c-4 -11 -7 -46 -7 -77 l0 -57 36 6 c20 4 44 14 55 25 17
17 17 19 -3 39 -15 15 -24 18 -32 10 -22 -22 -36 -11 -39 32 -2 31 -5 37 -10
22z"/>
<path d="M3667 1184 c-12 -12 -8 -79 5 -92 20 -20 28 -14 28 21 -1 35 -22 82
-33 71z"/>
<path d="M3191 1165 c0 -11 4 -29 9 -40 l9 -20 0 20 c0 11 -4 29 -9 40 l-9 20
0 -20z"/>
<path d="M1841 1120 c-8 -4 -11 -15 -8 -24 8 -20 47 -21 47 -2 0 20 -24 36
-39 26z"/>
<path d="M3309 1109 c-17 -33 3 -69 39 -69 33 0 52 16 52 45 0 29 -19 45 -52
45 -18 0 -31 -7 -39 -21z"/>
<path d="M3086 1060 c8 -43 14 -51 14 -19 0 13 -5 31 -10 39 -7 11 -8 5 -4
-20z"/>
<path d="M3212 1040 c0 -14 2 -19 5 -12 2 6 2 18 0 25 -3 6 -5 1 -5 -13z"/>
<path d="M3102 990 c0 -14 2 -19 5 -12 2 6 2 18 0 25 -3 6 -5 1 -5 -13z"/>
<path d="M3223 995 c4 -11 9 -35 12 -54 7 -39 24 -77 24 -51 0 24 -24 108 -33
117 -5 4 -6 -1 -3 -12z"/>
<path d="M3262 840 c0 -14 2 -19 5 -12 2 6 2 18 0 25 -3 6 -5 1 -5 -13z"/>
<path d="M5695 830 c3 -5 15 -10 26 -10 11 0 17 5 14 10 -3 6 -15 10 -26 10
-11 0 -17 -4 -14 -10z"/>
<path d="M3281 718 c0 -31 3 -37 8 -24 7 18 3 66 -5 66 -2 0 -4 -19 -3 -42z"/>
<path d="M32 698 c6 -18 28 -21 28 -4 0 9 -7 16 -16 16 -9 0 -14 -5 -12 -12z"/>
<path d="M3285 650 c-4 -6 -1 -17 5 -25 6 -8 9 -23 5 -35 -7 -21 2 -60 13 -60
9 0 2 113 -8 123 -4 5 -11 4 -15 -3z"/>
<path d="M4000 647 c0 -7 9 -46 21 -87 11 -41 40 -154 64 -251 25 -97 50 -196
57 -219 15 -49 41 -68 63 -46 8 8 37 22 65 31 27 9 52 21 56 26 3 5 -13 29
-36 53 -50 52 -114 161 -180 306 -26 58 -58 126 -71 153 -22 46 -39 60 -39 34z"/>
<path d="M4856 568 c-8 -33 -8 -38 7 -38 14 1 62 38 56 44 -2 3 -16 7 -30 11
-22 5 -27 3 -33 -17z"/>
<path d="M1940 504 c0 -8 5 -12 10 -9 6 4 8 11 5 16 -9 14 -15 11 -15 -7z"/>
<path d="M3311 463 c-1 -18 4 -33 9 -33 12 0 12 17 0 45 -7 17 -9 15 -9 -12z"/>
<path d="M4966 373 c57 -101 43 -93 128 -73 116 28 126 39 33 40 -89 0 -142
19 -160 57 -5 12 -14 23 -19 23 -5 0 3 -21 18 -47z"/>
<path d="M1461 381 c-11 -7 -11 -10 0 -17 34 -21 101 -54 109 -54 21 0 -5 31
-45 55 -49 28 -46 27 -64 16z"/>
<path d="M1621 321 c-11 -7 -8 -12 12 -26 27 -17 109 -45 135 -45 29 0 -28 48
-76 64 -53 18 -53 18 -71 7z"/>
<path d="M3940 80 c0 -37 19 -80 37 -80 9 0 13 13 13 39 0 52 -8 71 -31 71
-14 0 -19 -7 -19 -30z"/>
<path d="M2095 87 c-10 -25 13 -74 38 -81 12 -3 35 -6 50 -6 l29 0 -34 27
c-18 16 -43 39 -55 53 -19 23 -22 23 -28 7z"/>
<path d="M3450 15 c-11 -13 -6 -15 35 -15 41 0 46 2 35 15 -7 8 -23 15 -35 15
-12 0 -28 -7 -35 -15z"/>
</g>
</svg>
